<svg width="321" height="498" viewBox="0 0 321 498" fill="none" xmlns="http://www.w3.org/2000/svg">
<path d="M55.6487 404.492L51.5406 424.805L127.934 450.319L133.998 420.339L55.6487 404.492Z" fill="#FFB6B6"/>
<path d="M63.329 400.652L55.2378 440.655L55.2375 440.657C53.8693 447.418 49.8717 453.358 44.1238 457.172C38.376 460.985 31.3487 462.36 24.5877 460.992L23.7593 460.825L37.0071 395.328L63.329 400.652Z" fill="#2F2E41"/>
<path d="M142.218 124.695C170.866 124.695 194.089 101.471 194.089 72.8238C194.089 44.1762 170.866 20.9528 142.218 20.9528C113.57 20.9528 90.347 44.1762 90.347 72.8238C90.347 101.471 113.57 124.695 142.218 124.695Z" fill="#FEB8B8"/>
<path d="M190.666 28.0738C182.911 15.4806 170.772 6.2012 156.585 2.02176L150.217 6.66875V0.634753C146.81 0.113292 143.362 -0.087593 139.917 0.0347471L134.423 5.00576V0.447757C126.289 1.45858 118.452 4.14385 111.407 8.33426C104.362 12.5247 98.2619 18.1293 93.491 24.7947C81.56 41.9947 79.546 65.9238 91.281 83.2617C94.502 73.3617 98.412 64.0727 101.634 54.1737C104.166 54.5189 106.732 54.5313 109.267 54.2108L113.186 45.0658L114.281 53.8238C126.429 52.7658 144.447 50.4417 155.963 48.3127L154.843 41.5938L161.543 47.1768C165.071 46.3648 167.166 45.6278 166.993 45.0648C175.558 58.8728 186.04 67.6918 194.604 81.4998C197.857 62.0298 201.601 45.8408 190.666 28.0738Z" fill="#2F2E41"/>
<path d="M159.095 412.257C232.858 412.257 292.655 395.531 292.655 374.898C292.655 354.265 232.858 337.539 159.095 337.539C85.3319 337.539 25.535 354.265 25.535 374.898C25.535 395.531 85.3319 412.257 159.095 412.257Z" fill="#2F2E41"/>
<path d="M253.778 206.212C251.994 195.481 250.154 184.544 245.167 174.877C241.889 168.545 236.686 162.511 229.672 161.259C228.29 161.136 226.932 160.821 225.637 160.325C223.582 159.335 195.964 143.569 191.574 140.823C187.805 138.465 181.855 134.101 178.855 134.101C175.837 134.034 164.265 136.728 119.095 133.197C111.497 136.247 104.14 139.864 97.085 144.019C96.9394 143.923 50.2031 169.02 48.4473 168.954C45.1221 168.814 42.0313 170.943 40.125 173.624C38.2192 176.305 37.3252 179.624 36.3892 182.833C46.5972 205.566 55.937 228.328 66.146 251.061C66.624 251.917 66.878 252.88 66.8843 253.861C66.6791 254.879 66.2448 255.836 65.6143 256.661C60.6079 264.703 60.7671 274.818 61.314 284.27C61.8613 293.722 62.5381 303.706 58.314 312.178C57.1651 314.504 55.6709 316.633 54.5781 318.959C52.0191 324.227 51.0943 341.076 52.5889 346.736L239.855 352.101C235.829 341.033 253.778 206.212 253.778 206.212Z" fill="#4F46E5"/>
<path d="M20.2021 252.069C19.8284 254.772 19.7908 257.51 20.0901 260.223L22.7741 298.769C23.0261 302.402 23.2741 306.026 23.6151 309.65C24.2591 316.683 25.2211 323.66 26.4151 330.627C26.4421 331.616 26.8604 332.554 27.5782 333.235C28.2961 333.916 29.2548 334.285 30.2441 334.26C42.0591 336.76 54.2661 336.66 66.3241 335.979C84.7241 334.952 131.798 333.009 134.674 329.273C137.55 325.537 135.874 319.494 132.124 316.473C128.374 313.452 66.2531 306.087 66.2531 306.087C66.8601 301.277 68.6911 296.747 70.4281 292.18C73.5481 284.08 76.4621 275.714 76.5181 267.037C76.5741 258.36 73.3051 249.237 66.1971 244.266C60.3501 240.185 52.8221 239.428 45.6971 239.596C40.5131 239.745 31.5561 238.503 26.8211 240.53C23.0741 242.18 20.9021 248.4 20.2021 252.069Z" fill="#FBBEBE"/>
<path d="M254.11 339.202C257.22 338.016 260.648 338.445 263.982 338.894C274.714 340.36 285.604 341.864 295.551 346.151C300.221 348.151 304.667 350.821 307.824 354.751C310.624 358.291 312.26 362.625 313.811 366.893L317.398 376.719C318.923 380.41 319.974 384.279 320.527 388.235C321.648 399.994 313.606 411.08 303.491 417.189C293.376 423.298 281.468 425.473 269.867 427.752C258.266 430.031 246.62 432.552 235.067 435.224C229.678 436.622 224.211 437.698 218.694 438.446C206.328 439.846 193.402 437.783 181.652 441.874C176.982 443.509 172.396 445.937 167.552 447.067C164.332 447.744 161.077 448.24 157.801 448.552L135.563 451.092C131.041 451.697 126.488 452.046 121.927 452.138C112.214 452.138 102.659 449.838 93.227 447.538C92.2248 447.362 91.2708 446.977 90.427 446.408C88.933 445.231 88.606 443.148 88.391 441.262C87.4384 432.912 86.605 424.553 85.891 416.185C85.667 413.467 85.499 410.525 86.984 408.237C88.852 405.437 92.495 404.557 95.82 404.015C109.919 401.708 124.202 400.717 138.485 401.054C143.911 395.628 152.859 395.6 159.967 392.648C162.582 391.447 165.113 390.071 167.542 388.529C180.256 381.111 194.464 376.622 209.132 375.388C212.005 375.3 214.859 374.893 217.641 374.174C223.141 372.465 228.158 367.813 233.808 368.953C234.508 367.02 234.994 364.432 236.608 363.106C237.408 362.424 238.401 361.967 239.139 361.238C240.699 359.66 240.839 357.175 240.605 354.971C240.371 352.767 239.848 350.507 240.418 348.358C240.655 347.544 241.004 346.768 241.455 346.051C244.247 341.219 248.478 338.735 254.11 339.202Z" fill="#2F2E41"/>
<path d="M35.849 183.525C34.9393 184.477 34.2339 185.606 33.776 186.841C26.2264 203.855 21.7671 222.079 20.607 240.657C20.6274 241.563 20.4186 242.459 20 243.263C19.5872 243.797 19.1278 244.294 18.627 244.748C18.1904 245.265 17.8601 245.864 17.6548 246.509C17.4495 247.154 17.3733 247.834 17.4306 248.508C17.4878 249.183 17.6774 249.84 17.9885 250.441C18.2996 251.043 18.7261 251.577 19.2436 252.013C19.3285 252.085 19.4156 252.154 19.505 252.22C21.046 249.32 24.735 248.372 28.014 248.12C43.714 246.878 59.05 254.182 74.797 253.631C73.686 249.792 72.088 246.103 71.182 242.218C67.175 224.967 77.169 206.185 71.042 189.569C69.818 186.244 67.773 182.975 64.551 181.518C63.2168 180.98 61.8207 180.61 60.395 180.418C56.416 179.699 48.495 176.626 44.648 177.859C43.228 178.317 42.668 179.652 41.491 180.459C39.703 181.601 37.331 182.021 35.849 183.525Z" fill="#4F46E5"/>
<path d="M253.89 240.53C249.155 238.503 240.198 239.745 235.014 239.596C227.889 239.428 220.361 240.185 214.514 244.266C207.406 249.237 204.137 258.36 204.193 267.037C204.249 275.714 207.163 284.08 210.283 292.18C212.02 296.747 213.851 301.277 214.458 306.087C214.458 306.087 152.337 313.452 148.587 316.473C144.837 319.494 143.161 325.537 146.037 329.273C148.913 333.009 238.652 336.76 250.467 334.26C251.456 334.285 252.415 333.916 253.133 333.235C253.851 332.554 254.269 331.616 254.296 330.627C255.49 323.66 256.452 316.683 257.096 309.65C257.437 306.026 257.685 302.402 257.937 298.769L260.621 260.223C260.92 257.51 260.883 254.772 260.509 252.069C259.809 248.4 257.637 242.18 253.89 240.53Z" fill="#FBBEBE"/>
<path d="M239.22 180.459C238.043 179.652 237.483 178.317 236.063 177.859C232.216 176.626 224.295 179.699 220.316 180.418C218.89 180.61 217.494 180.98 216.16 181.518C212.938 182.975 210.893 186.244 209.669 189.569C203.542 206.185 213.536 224.967 209.529 242.218C208.623 246.103 207.025 249.792 205.914 253.631C221.661 254.182 236.997 246.878 252.697 248.12C255.976 248.372 259.665 249.32 261.206 252.22C261.295 252.154 261.382 252.085 261.467 252.013C261.985 251.577 262.411 251.043 262.722 250.441C263.034 249.84 263.223 249.183 263.28 248.508C263.338 247.834 263.261 247.154 263.056 246.509C262.851 245.864 262.521 245.265 262.084 244.748C261.583 244.294 261.124 243.797 260.711 243.263C260.292 242.459 260.084 241.563 260.104 240.657C258.944 222.079 254.485 203.855 246.935 186.841C246.477 185.606 245.772 184.477 244.862 183.525C243.38 182.021 241.008 181.601 239.22 180.459Z" fill="#4F46E5"/>
<path d="M265.482 433.489L262.752 454.032L182.214 453.277L186.244 422.957L265.482 433.489Z" fill="#FFB6B6"/>
<path d="M286.092 430.896L277.288 497.136L276.45 497.025C269.612 496.116 263.416 492.528 259.223 487.05C255.03 481.573 253.185 474.654 254.093 467.816L254.094 467.815L259.471 427.357L286.092 430.896Z" fill="#2F2E41"/>
<path d="M76.0081 349.598C76.0081 350.532 74.5421 349.598 74.4081 348.598C73.3811 341.042 67.3841 334.812 60.3981 331.786C53.4121 328.76 45.4541 328.601 37.8891 329.32C26.4481 330.403 13.6051 334.784 9.42107 345.478C8.43107 347.978 -0.842924 370.238 0.0620755 375.244C2.50008 388.6 11.6341 400.023 22.7021 407.934C33.7701 415.845 46.7021 420.571 59.6021 424.834C93.7083 436.082 128.701 444.44 164.209 449.818C169.962 450.687 175.772 451.49 181.282 453.339C186.213 454.992 190.827 457.467 195.647 459.41C206.855 463.91 218.913 465.518 230.858 467.097C232.894 467.359 235.229 467.545 236.733 466.163C238.676 464.363 238.033 461.222 237.48 458.635C235.453 448.798 237.154 438.559 242.253 429.906C244.253 426.544 246.853 423.097 246.475 419.206C246.027 414.667 241.506 411.454 237.004 410.725C232.502 409.996 227.926 411.071 223.404 411.659C221.854 412.015 220.231 411.854 218.781 411.201C218.109 410.747 217.5 410.207 216.969 409.595C213.855 406.591 209.869 404.65 205.584 404.051C201.299 403.452 196.934 404.226 193.115 406.261C191.443 407.195 188.915 405.112 187.175 404.328L167.533 395.436C144.968 385.228 122.291 374.972 98.4181 368.509C96.5132 368.134 94.7028 367.381 93.0941 366.295C91.9081 365.361 91.0581 364.095 89.9651 363.054C87.5831 360.803 84.2651 359.906 81.4101 358.309C78.5551 356.712 75.3541 352.801 76.0081 349.598Z" fill="#2F2E41"/>
<path d="M126.855 336.101C134.587 336.101 140.855 329.833 140.855 322.101C140.855 314.369 134.587 308.101 126.855 308.101C119.123 308.101 112.855 314.369 112.855 322.101C112.855 329.833 119.123 336.101 126.855 336.101Z" fill="#FBBEBE"/>
<path d="M157.855 336.101C165.587 336.101 171.855 329.833 171.855 322.101C171.855 314.369 165.587 308.101 157.855 308.101C150.123 308.101 143.855 314.369 143.855 322.101C143.855 329.833 150.123 336.101 157.855 336.101Z" fill="#FBBEBE"/>
<path d="M244.274 353.648H51.9352C49.6896 353.645 47.5367 352.752 45.9488 351.164C44.3609 349.576 43.4676 347.424 43.465 345.178V228.491C43.4676 226.246 44.3609 224.093 45.9488 222.505C47.5367 220.917 49.6896 220.024 51.9352 220.022H244.274C246.52 220.024 248.673 220.917 250.26 222.505C251.848 224.093 252.742 226.246 252.744 228.491V345.178C252.742 347.424 251.848 349.576 250.26 351.164C248.673 352.752 246.52 353.645 244.274 353.648Z" fill="#3F3D56"/>
<path d="M147.638 292.439C150.733 292.439 153.242 289.93 153.242 286.835C153.242 283.74 150.733 281.231 147.638 281.231C144.543 281.231 142.034 283.74 142.034 286.835C142.034 289.93 144.543 292.439 147.638 292.439Z" fill="white"/>
</svg>
