<svg width="681" height="579" viewBox="0 0 681 579" fill="none" xmlns="http://www.w3.org/2000/svg">
<path d="M679.734 285.566C676.004 328.646 657.224 370.276 630.434 404.706C629.314 406.146 628.18 407.572 627.034 408.986C624.454 412.166 621.807 415.286 619.094 418.346C615.774 422.116 612.357 425.799 608.844 429.396C605.984 432.356 603.057 435.252 600.064 438.086C597.754 440.296 595.417 442.462 593.054 444.586C564.624 470.276 531.964 491.476 498.314 510.016C432.644 546.186 360.664 573.586 285.794 577.576C210.934 581.556 132.784 560.116 77.8836 509.056C3.8936 440.246 -16.7564 325.476 13.2836 229.006C33.2636 164.826 74.0436 106.766 129.544 68.8456C184.564 31.2556 253.974 14.3356 319.664 25.3956C372.104 -6.47442 440.754 -7.08436 497.764 16.5056C528.184 29.0956 555.484 47.8156 579.434 70.4356C590.402 80.8164 600.664 91.9177 610.154 103.666C611.124 104.856 612.084 106.056 613.034 107.266C617.014 112.296 620.864 117.429 624.584 122.666C629.924 130.176 634.994 137.852 639.794 145.696C641.114 147.856 642.424 150.026 643.704 152.216C644.564 153.686 645.434 155.166 646.284 156.656C646.303 156.686 646.316 156.72 646.324 156.756C659.634 180.166 670.514 205.146 676.184 231.256C677.184 235.876 678.024 240.516 678.674 245.196V245.206C679.244 249.176 679.674 253.166 679.964 257.176C680.647 266.63 680.57 276.124 679.734 285.566Z" fill="#3F3D56"/>
</svg>
